/* XPM */
static char *orca_west[] = {
/* columns rows colors chars-per-pixel */
"42 42 155 2 ",
"   c #3D312F",
".  c #42312D",
"X  c #4A3530",
"o  c #4D3C38",
"O  c #035155",
"+  c #095357",
"@  c #0B5559",
"#  c #085A5E",
"$  c #145559",
"%  c #19575B",
"&  c #175A5E",
"*  c #1C5A5D",
"=  c #215C5F",
"-  c #1B5E61",
";  c #235E61",
":  c #1D6062",
">  c #216265",
",  c #2B6567",
"<  c #2C6769",
"1  c #2D6B6C",
"2  c #316F70",
"3  c #434344",
"4  c #4A4443",
"5  c #4C4C4B",
"6  c #544542",
"7  c #514846",
"8  c #534C4B",
"9  c #594E4C",
"0  c #53504F",
"q  c #4D4F50",
"w  c #4E5151",
"e  c #555454",
"r  c #5A5555",
"t  c #5C5857",
"y  c #555A5B",
"u  c #5A5A5A",
"i  c #5A5F60",
"p  c #576162",
"a  c #5C6465",
"s  c #5C6769",
"d  c #5E696B",
"f  c #596D70",
"g  c #5F7072",
"h  c #5D7975",
"j  c #5D7579",
"k  c #5D7F7E",
"l  c #646464",
"z  c #6A6463",
"x  c #616A6B",
"c  c #6B6B6B",
"v  c #606F71",
"b  c #627274",
"n  c #6E7171",
"m  c #62777A",
"M  c #647A7D",
"N  c #727272",
"B  c #737C7E",
"V  c #7C7C7C",
"C  c #667E81",
"Z  c #697F82",
"A  c #3F8B89",
"S  c #458786",
"D  c #438887",
"F  c #458D8C",
"G  c #4C8F8E",
"H  c #5D8585",
"J  c #47918F",
"K  c #4A918F",
"L  c #4E9492",
"P  c #529593",
"I  c #559896",
"U  c #589995",
"Y  c #559C9C",
"T  c #5B9D9B",
"R  c #678084",
"E  c #6F8886",
"W  c #6A868A",
"Q  c #668E8E",
"!  c #6D8B8F",
"~  c #758182",
"^  c #6F8F93",
"/  c #7A8E91",
"(  c #6A9494",
")  c #679F9B",
"_  c #6E9B9D",
"`  c #749798",
"'  c #739D9F",
"]  c #63A19E",
"[  c #5BA2A2",
"{  c #64A5A3",
"}  c #69A7A3",
"|  c #6BA9A5",
" . c #64A9AA",
".. c #6CACAB",
"X. c #7CA4A6",
"o. c #70ADAB",
"O. c #76B1AC",
"+. c #7CB4AF",
"@. c #69AEB1",
"#. c #73B3B2",
"$. c #7CB5B0",
"%. c #838484",
"&. c gray56",
"*. c gray58",
"=. c #85A0A0",
"-. c #8AA4A5",
";. c #8DABAD",
":. c #80B7B2",
">. c #AADDD5",
",. c #AFE4DC",
"<. c #B1E2D7",
"1. c #B3E5DC",
"2. c #B6E8DF",
"3. c #95E4ED",
"4. c #9AE4EE",
"5. c #97E6F0",
"6. c #9CE6F0",
"7. c #97E8F2",
"8. c #9CEAF4",
"9. c #9EEEF8",
"0. c #9FF3FE",
"q. c #AFE6E0",
"w. c #B1E7E1",
"e. c #B5EAE2",
"r. c #BAEDE4",
"t. c #B9EFE8",
"y. c #BEF1E7",
"u. c #BCF1EA",
"i. c #A1EDF7",
"p. c #A1EFF9",
"a. c #A3F4FE",
"s. c #A3F4FF",
"d. c #A4F4FF",
"f. c #A6F4FF",
"g. c #A9F5FE",
"h. c #ADF5FD",
"j. c #ACF5FE",
"k. c #A6F9FF",
"l. c #A8F9FF",
"z. c #DBDDDD",
"x. c #C0F3E8",
"c. c #E5E5E5",
"v. c #E9E9E9",
"b. c #EAEBEC",
"n. c #EFEFEF",
"m. c #F0EFEF",
"M. c #F1F0EF",
"N. c #E3FBF5",
"B. c #F1F1F1",
"V. c #F4F3F3",
"C. c #F3F4F4",
"Z. c #F7F7F7",
"A. c #F8F6F6",
"S. c #F9F9F8",
"D. c #FDFDFD",
/* pixels */
"s.s.s.s.s.s.s.s.s.s.s.s.s.s.s.s.s.s.s.s.s.s.s.s.s.s.s.s.s.s.s.s.s.s.s.s.s.s.s.d.s.s.",
"s.d.d.s.s.d.s.s.d.d.s.d.d.s.s.d.d.s.d.d.s.d.d.s.s.d.d.s.d.d.s.s.d.d.s.d.d.s.s.d.d.s.",
"s.d.d.s.s.d.d.s.d.d.s.d.d.s.s.d.d.s.d.d.s.d.d.s.s.d.d.s.d.d.s.s.d.d.s.d.d.s.s.d.d.d.",
"s.s.s.s.s.s.s.s.s.s.s.s.s.s.s.s.s.s.s.s.s.s.s.s.s.s.s.s.s.s.s.s.s.s.s.s.s.s.s.d.d.s.",
"s.s.d.s.s.d.s.s.d.s.s.s.d.s.s.d.s.s.s.d.s.s.d.s.s.d.s.s.s.d.s.s.d.s.s.s.d.s.s.d.s.s.",
"s.d.d.s.d.d.d.s.d.d.s.d.d.d.d.d.d.s.d.d.s.d.d.d.s.d.d.s.d.d.d.d.d.d.s.d.d.s.d.d.d.s.",
"s.s.d.s.s.d.s.s.d.s.s.s.d.s.s.d.s.s.s.d.s.s.d.s.s.d.s.s.s.d.s.s.d.s.s.s.d.s.s.d.d.s.",
"s.s.s.s.s.d.s.s.s.s.s.s.s.s.s.d.s.s.s.s.s.s.d.s.s.s.s.s.s.s.s.s.d.s.s.s.s.s.s.d.s.s.",
"s.d.d.s.s.d.d.s.d.d.s.d.d.s.s.d.d.s.d.d.s.d.d.d.s.d.d.s.d.d.s.s.d.d.s.d.d.s.d.d.d.s.",
"s.s.s.s.s.d.s.s.d.s.s.s.d.s.s.d.s.s.s.s.s.s.d.s.s.d.s.s.s.d.s.s.d.s.s.s.s.s.s.d.d.d.",
"s.s.s.s.s.s.s.s.s.s.s.s.s.s.s.s.s.s.s.s.s.s.s.s.s.s.s.s.s.s.s.s.s.s.s.s.s.s.s.d.d.s.",
"s.s.d.s.s.d.s.s.s.s.s.d.d.d.s.s.s.s.s.d.s.s.d.s.s.d.s.s.s.d.s.s.d.s.s.s.d.s.s.d.d.s.",
"d.d.d.d.d.d.d.s.d.d.p.i.i.p.d.d.s.s.d.d.s.d.d.d.d.d.d.s.d.d.d.d.d.d.s.d.d.s.d.d.d.d.",
"s.d.d.s.s.d.s.d.p.6.M d x Z 6.s.d.s.s.d.s.s.d.s.s.d.d.s.s.d.s.s.d.s.s.d.d.s.s.d.d.s.",
"s.s.s.s.s.s.s.4.C a e 8 4 4 y C 6.d.d.s.s.s.s.s.s.s.s.s.s.s.s.s.s.s.s.s.s.s.s.d.s.s.",
"s.d.d.s.s.d.p.C 9 t e u N c z 9 C 6.s.d.s.s.d.d.s.d.d.s.d.d.s.s.d.s.d.j.d.s.d.d.d.d.",
"s.d.d.s.s.d.9.a 4 y 5 N v.D.C.N 5 a M 6.k.d.s.s.s.d.d.s.s.d.d.s.d.s.g.N.j.s.d.d.d.s.",
"s.s.s.s.s.d.9.g z n 5 3 V Z.B.c q 0 7 M 6.9.s.s.s.s.s.s.s.s.0.s.s.d.s.g.s.s.0.s.s.s.",
"s.d.d.s.s.g.8.B m.C.V l 5 c c u u u u r s R 6.p.d.d.d.s.s.d.j.d.s.9.0.s.s.d.j.d.d.s.",
"s.d.d.s.s.g.8./ B.D.S.B.%.l c l u e u u 8 e a R 4.d.s.d.s.j.N.j.9...[ 8.d.j.N.j.s.d.",
"s.s.s.s.s.s.d.3.=.S.D.D.Z.D.B.l 5 e e e u u e o W p.s.s.s.d.g.s.d.,.]  .8.d.g.d.d.s.",
"s.s.d.s.s.s.d.9.X.n.D.D.D.D.S.%.e e u u e u e C 4.d.s.s.d.s.0.s.d.g.r.<.#.7.d.d.s.s.",
"s.d.d.s.d.d.s.d.6.;.B.D.D.D.D.v.c e u u u e x 6.k.s.d.s.d.d.j.d.s.s.u.x.<.#.7.d.d.s.",
"s.s.d.s.d.d.s.s.d.7.-.S.D.D.B.%.e e u u e e R s.s.s.s.s.0.g.N.j.s.d.d.r.x.1.#.s.d.s.",
"s.s.s.s.s.d.s.s.d.7.` n.D.n.V 5 u u u u 8 d 6.s.s.s.s.s.d.j.j.s.d.s.s.t.r.r.e.p.s.s.",
"s.d.d.s.s.d.s.d.8.' H -.v.%.3 e 5 3 5 a 8 v s.d.s.d.d.s.j.N.g.0.d.d.s.g.r.x.r...7.d.",
"s.s.d.s.s.s.d.9.( h k k E 5 u N N V V w 8 v 9.d.s.d.s.s.d.j.d.s.s.0.s.d.r.r.e.]  .8.",
"s.s.s.s.s.s.s.9._ Q ( ( ( H n m.S.B.c.%.4 a 9.s.s.s.s.s.s.s.s.s.d.j.s.g.e.| e.2.T I ",
"s.s.d.s.s.d.s.s.p.p.9.9.s.3.~ S.D.V *.c.c j p.d.s.d.s.s.s.d.d.0.j.N.j.u.,.} r.r.T F ",
"d.d.d.d.d.d.d.d.d.d.d.d.l.8.~ A.Z.&.z.%.p 6.d.s.d.d.d.s.d.d.d.d.d.j.u.<.:.1.x.2.] L ",
"s.s.d.s.s.d.s.s.s.s.s.s.d.7.~ V.D.v.%.. R p.d.s.0.s.d.s.s.d.s.s.s.d.e.+.>.r.x.r.T J ",
"s.s.s.s.s.d.s.s.d.d.s.s.l.8.~ S.D.%.  Z 6.d.s.d.g.d.s.s.s.d.s.s.s.u.y.>.$.e.r.<.T J ",
"s.d.d.s.d.d.d.s.8.8.9.d.g.7.~ M.m.r m i.d.d.s.j.N.j.s.d.d.d.d.s.g.y.<.+.2.2.{ T I L ",
"s.s.d.s.s.s.d.9.^ p M 4.l.9.b z B R 6.d.s.s.d.d.g.d.s.s.s.d.s.d.u.2.O.2.2.] F L P L ",
"s.s.s.s.s.s.s.s.4.y X m 6.7.p f 5.9.s.s.s.s.s.s.0.s.s.s.s.s.s.t.r.r.r.1.{ A - < L L ",
"d.d.d.s.s.d.s.d.s.W e u b i M 6.l.s.s.d.s.d.d.d.d.d.d.s.d.s.d.u.y.r.2.{ L L < P I P ",
"9.s.d.s.d.d.s.s.d.4.d 8 6 M 6.d.s.d.d.d.s.d.d.d.s.d.d.s.s.g.u.r.1.{ I P P P K P P L ",
"[ p.s.s.s.d.s.s.4.m 8 s C 7.s.s.s.9.s.s.s.s.s.s.s.s.s.s.d.u.1.{ U L J F 1 D > * ; & ",
"P ,.g.0.s.s.s.9.! e M 4.s.s.s.d.3. .i.d.s.s.d.s.s.d.d.9.p.1.] F L P K 2 S : O % $ O ",
"> ) w.g.d.d.d.d.p.s.s.k.l.d.g.s.@.} w.j.g.d.d.d.d.s.6. .Y ] P I U I I G < % = ; = * ",
"$ - ) q.i.9.9.9.s.s.0.9.9.9.9.8.7.3.o.1.e.i.s.s.7. .Y P P L P I P P G , $ % * = * ; ",
"@ + # U T Y Y Y T Y Y T Y Y T T [ [ L T I | 1. .I L J L P L L L P G - O + O @ $ + & "
};
