/* XPM */
static char *penguin_south[] = {
/* columns rows colors chars-per-pixel */
"42 42 122 2 ",
"   c #4F4847",
".  c #4F4B4B",
"X  c #4A4A4C",
"o  c #534B49",
"O  c #504C4E",
"+  c #574F4E",
"@  c #55504F",
"#  c #4E4C50",
"$  c #4B585B",
"%  c #515050",
"&  c #545353",
"*  c #575453",
"=  c #505356",
"-  c #535454",
";  c #565555",
":  c #585757",
">  c #595857",
",  c #545759",
"<  c #575959",
"1  c #585A5A",
"2  c #5B5D5D",
"3  c #5D5C5C",
"4  c #6E5750",
"5  c #6B5B55",
"6  c #69615A",
"7  c #69635C",
"8  c #74625C",
"9  c #515E60",
"0  c #5D6566",
"q  c #5C6668",
"w  c #5C6869",
"e  c #626161",
"r  c #676662",
"t  c #646767",
"y  c #6F6D67",
"u  c #676A6A",
"i  c #626B6D",
"p  c #606D6F",
"a  c #686A6A",
"s  c #766C67",
"d  c #606F71",
"f  c #60767A",
"g  c #60787B",
"h  c #64787B",
"j  c #657B7F",
"k  c #667C7F",
"l  c #717474",
"z  c #737B77",
"x  c #7D7C75",
"c  c #737878",
"v  c #747979",
"b  c #707D7B",
"n  c #7A7A7B",
"m  c #7E7B79",
"M  c #7D7F7E",
"N  c #78817F",
"B  c #86847B",
"V  c #938679",
"C  c #E88242",
"Z  c #EC9565",
"A  c #F39764",
"S  c #F5A176",
"D  c #637E82",
"F  c #687D80",
"G  c #858787",
"H  c #888B8B",
"J  c #8A8C8C",
"K  c #8D8D8D",
"L  c #909292",
"P  c #F1AA89",
"I  c #97E7F2",
"U  c #9BE7F2",
"Y  c #9DE9F3",
"T  c #9FEDF7",
"R  c #9EEEF8",
"E  c #9EF0FB",
"W  c #9EF3FF",
"Q  c #AAE7EF",
"!  c #A5E9F3",
"~  c #ADEAF2",
"^  c #AEEFF7",
"/  c #A0EEF9",
"(  c #ABEFF8",
")  c #AEEFF8",
"_  c #A2F3FE",
"`  c #A5F3FE",
"'  c #A1F4FF",
"]  c #A4F4FF",
"[  c #A9F5FF",
"{  c #ACF5FF",
"}  c #B0F5FF",
"|  c #B5F5FE",
" . c #CFDFDF",
".. c #E9E6CE",
"X. c #ECE5CC",
"o. c #F3E6CB",
"O. c #F7F2D9",
"+. c #F3F3DD",
"@. c #F9F3D8",
"#. c #FAF6DD",
"$. c #D5E5E5",
"%. c #DAEAEB",
"&. c #DDEBEA",
"*. c #DDF1F1",
"=. c #E0F0F0",
"-. c #E2F3F3",
";. c #E4F2F2",
":. c #E3F4F4",
">. c #E4F4F4",
",. c #E5FCFE",
"<. c #E9FDFF",
"1. c #EFFFFF",
"2. c #F1F1F1",
"3. c #F2F4F4",
"4. c gray97",
"5. c #F8F7F7",
"6. c #F5FAFB",
"7. c #F2FFFF",
"8. c #F6FFFD",
"9. c #F8F8F8",
"0. c #F8FDFE",
"q. c #FFFEFE",
/* pixels */
"' ' ' ' ' ' ' ' ' ' ' ' ' ' ' ] ' ' ' ' ' ' ' ' ' ] ' ' ' ' ' ' ' ' ' ' ' ' ' ] ' ' ",
"' ] ] ' ] ] ] ' ] ] ' ] ] ' ] ] ] ] ] ] ' ] ] ' ' ] ] ] ] ] ' ' ] ] ' ] ] ' ] ] ] ' ",
"' ] ] ' ] ] ] ] ] ] ' ] ] ' ' ] ] ' ] ] ] ] ] ' ' ] ] ] ] ] ' ' ] ] ' ] ] ' ] ] ] ] ",
"' ' ' ' ' ' ' ' ' ' ' ' ' ' ' ] ' ' ' ' ' ' ' ' ' ' ' ' ' ' ' ' ' ' ' ' ' ' ' ] ] ' ",
"' ' ] ' ' ] ' ' ] ' ' ] ] ' ] ] ' ' ] ] ' ] ] ' ' ] ' ' ' ] ] ] ] ' ' ] ] ' ' ] ' ' ",
"' ] ] ] ] ] ] ] ] ] ] ] ] ] ] ] ] ' ] ] ] ] ] ] ] ] ] ' ] ] ] ] ] ] ] ] ] ' ] ] ] ' ",
"' ] ] ' ' ] ' ' ] ' ' ' ] ' ] ] ' ' ' ] ' ' ] ' ' ] ' ' ' ] ] ' ] ' ' ] ] ' ' ] ] ' ",
"' ] ' ' ' ] ] ' ' ' ' ' ] ' ' ] ' ' ' ] ' ' ] ' ' ] ' ' ' ] ' ' ] ' ' ' ' ' ' ] ' ' ",
"' ] ] ' ] ] ] ' ] ] ' ] ] ' ' ] ] ' ] ] ' ] ] ' ] ] ] ' ] ] ` ' ] ] ' ] ] ] ] ] ] ' ",
"' ' ] ' ] ] ' ' ] ] ' ' ] ' ] ] ' ' ' ] ' ' ] ' ' ] ' _ ] ] ] _ ] ' ' ] ] ' ' ] ] ] ",
"' ' ' ' ' ' ' ' ' ] ' ' ' ' ' ' ' ' ' ] ' ' ' ' ' _ _ ' R T R ' ' ' ' ' ] ' ' ] ] ' ",
"' ' ] ' ' ] ' ' ] ' ' ' ] ' ' ] ' ' ] ] ' ' ] _ ' ] ] U j 0 k Y ] ' ' ] ] ' ' ] ] ' ",
"] ] ] ] ] ] ] ] ] ] ' ] ] ] ] ] ] ' ] ] ] ] ] ' ' E U h + > X f Y ] _ ] ] ] ] ] ] ] ",
"' ] ] ' ' ] ' ' ] ] ' ' ] ' ' ] ' ' ] ] ' ' ` ) Q m s * < 3 8 6 F / ' ] ] ' ' ] ] ' ",
"' ' ' ' ' ] ' ' ] ' ' ' ' ' ' ] ' ' ] ] _ ' ( P S A C 5 $ 4 Z o.b R ] _ ' ' ' ] ] ' ",
"] ] ] ' ] ] ] ' ] ] ' ] ] ] ] ] ] ' ] ] ' ' ] ^ ^ ~ M O = # V X.N U ] ] ] ' ] ] ] ] ",
"' ] ] ' ] ] ' ' ] ] ' ' ] ] ' ] ' ' ] ] ' ' ] ' ' ' I z 7 B ..x O j Y ] ] ' ' ] ] ' ",
"' ' ' ' ' ] ' ' ' ' ' ' ] ' ' ' ' ' ' ' ' ' ' _ _ _ } +.O.#.@.r # o g / ] _ ' ' ' ' ",
"' ] ] ' ] ] ] ' ] ] ] ] ] ] ' ] ] ' ] ] ' ] ] ] ' } <.7.7.8.O.y , : q Y ] _ ' ] ] ' ",
"' ] ] ' ] ] ] ' ] ] ] ] ] ] ' ] ] ] ] ] ' ] ] ' [ <.7.1.1.7.&.a ; 2 & k / ] ' ] ] ] ",
"' ' ' ' ' ' ' ' ' ' ' ' ' ' ' ' ' ' ' ' ' ' ' ' [ 1.7.1.7.7.%.t % < . w R ' _ ' ] ' ",
"' ' ] ' ' ] ' ' ] ] ' ' ] ' ' ] ' ' ] ] ] ] ] ' [ 1.7.7.1.>.%.a & 1 O d / ' _ ] ] ' ",
"' ] ] ' ] ] ] ] ] ] ' ] ] ] ] ] ] ' ] ] ] ] ] ' [ 1.7.1.-.-.%.t : 2 @ d / ] ] ] ] ' ",
"' ] ] ' ] ] ' ' ] ' ' ' ] ' ' ] ' ' ' ] ' ' ] ' [ <.-.-.-.-.%.v O 1 O p / ' _ ] ] ' ",
"' ] ' ' ' ] ' ' ' ' ' ' ] ' ' ] ' ' ' ' ' ' ] ' [ <.-.*.-.-.-.$.c - O d / ' _ ] ' ' ",
"] ] ] ] ] ] ] ] ] ] ] ] ] ] ] ] ] ] ] ] ] ] ] ' [ 1.-.*.-.-.-.:.$.u   i / ] ] ] ] ] ",
"' ' ' ' ' ' ' ' ' ' ' ' ' ' ' ' ' ' ' ' ' ' ' W ] ,.-.*.-.-.-.-.%.u . D R ' _ ' ' ' ",
"[ [ [ [ [ { [ [ [ [ [ [ { [ { { { [ [ [ [ [ { [ [ | *.-.-.-.*.-.%.e 9 ! { [ [ { { [ ",
"0.0.0.0.0.0.0.0.0.0.0.0.0.0.0.0.0.0.0.0.0.0.0.0.0.0.;.*.-.-.-.-.%.t n 6.q.0.0.0.0.0.",
"q.q.q.q.q.q.q.q.q.q.q.q.q.q.q.q.q.q.q.q.q.q.q.q.q.q.q.>.-.-.-.>.%.v 2.q.q.q.q.q.q.q.",
"q.q.q.q.q.q.q.q.q.q.q.q.q.q.q.q.q.q.q.q.q.q.q.q.q.q.q.3.%.%.-.%. .J 9.q.q.q.q.q.q.q.",
"q.q.q.q.q.q.q.q.q.q.q.q.q.q.q.q.q.q.q.q.q.q.q.q.q.q.9.K l L 2.H G 4.q.q.q.q.q.q.q.q.",
"q.q.q.q.q.q.q.q.q.q.q.q.q.q.q.q.q.q.q.q.q.q.q.q.q.q.q.4.4.9.q.5.5.q.q.q.q.q.q.q.q.q.",
"q.q.q.q.q.q.q.q.q.q.q.q.q.q.q.q.q.q.q.q.q.q.q.q.q.q.q.q.q.q.q.q.q.q.q.q.q.q.q.q.q.q.",
"q.q.q.q.q.q.q.q.q.q.q.q.q.q.q.q.q.q.q.q.q.q.q.q.q.q.q.q.q.q.q.q.q.q.q.q.q.q.q.q.q.q.",
"q.q.q.q.q.q.q.q.q.q.q.q.q.q.q.q.q.q.q.q.q.q.q.q.q.q.q.q.q.q.q.q.q.q.q.q.q.q.q.q.q.q.",
"q.q.q.q.q.q.q.q.q.q.q.q.q.q.q.q.q.q.q.q.q.q.q.q.q.q.q.q.q.q.q.q.q.q.q.q.q.q.q.q.q.q.",
"q.q.q.q.q.q.q.q.q.q.q.q.q.q.q.q.q.q.q.q.q.q.q.q.q.q.q.q.q.q.q.q.q.q.q.q.q.q.q.q.q.q.",
"q.q.q.q.q.q.q.q.q.q.q.q.q.q.q.q.q.q.q.q.q.q.q.q.q.q.q.q.q.q.q.q.q.q.q.q.q.q.q.q.q.q.",
"q.q.q.q.q.q.q.q.q.q.q.q.q.q.q.q.q.q.q.q.q.q.q.q.q.q.q.q.q.q.q.q.q.q.q.q.q.q.q.q.q.q.",
"q.q.q.q.q.q.q.q.q.q.q.q.q.q.q.q.q.q.q.q.q.q.q.q.q.q.q.q.q.q.q.q.q.q.q.q.q.q.q.q.q.q.",
"q.q.q.q.q.q.q.q.q.q.q.q.q.q.q.q.q.q.q.q.q.q.q.q.q.q.q.q.q.q.q.q.q.q.q.q.q.q.q.q.q.q."
};
