/* XPM */
static char *seahorse_east[] = {
/* columns rows colors chars-per-pixel */
"42 42 106 2 ",
"   c #FF5E31",
".  c #FF5A36",
"X  c #FF5E36",
"o  c #FF5A3A",
"O  c #FF5C3C",
"+  c #FF6038",
"@  c #FF623C",
"#  c #FF6F3B",
"$  c #FF6A3F",
"%  c #FF703E",
"&  c #FF5F42",
"*  c #FF6447",
"=  c #FF6D41",
"-  c #FF6E45",
";  c #FE6049",
":  c #FF7042",
">  c #FC6C54",
",  c #FB715C",
"<  c #FB705F",
"1  c #FB7160",
"2  c #FA7463",
"3  c #F77C6E",
"4  c #F67E74",
"5  c #978757",
"6  c #FFA644",
"7  c #FFA949",
"8  c #FEAB56",
"9  c #FEA259",
"0  c #FB9162",
"q  c #FB9365",
"w  c #FA9566",
"e  c #F9996C",
"r  c #F69D77",
"t  c #F69A79",
"y  c #F59E79",
"u  c #F59F7C",
"i  c #FFCC4B",
"p  c #FFCF4F",
"a  c #FFD44F",
"s  c #FFD84F",
"d  c #FFCC56",
"f  c #FECF5D",
"g  c #FFD056",
"h  c #F8D654",
"j  c #FFDB52",
"k  c #FFDF52",
"l  c #FFD954",
"z  c #FFDD54",
"x  c #F6D75E",
"c  c #FFD459",
"v  c #FED15F",
"b  c #FED55D",
"n  c #F7D95B",
"m  c #FFD95B",
"M  c #FFDF58",
"N  c #FFD95F",
"B  c #FFDD5D",
"V  c #FEE25F",
"C  c #FCD365",
"Z  c #FEDA60",
"A  c #FBDF6C",
"S  c #F6DC7B",
"D  c #F6D87D",
"F  c #FDE167",
"G  c #FAE06B",
"H  c #FEE06B",
"J  c #FBE16F",
"K  c #FDE16E",
"L  c #FAE273",
"P  c #F9E374",
"I  c #F6E17B",
"U  c #F6E17F",
"Y  c #F28C85",
"T  c #F4A380",
"R  c #F1A386",
"E  c #F2A487",
"W  c #F6DD80",
"Q  c #F6E180",
"!  c #F1E28F",
"~  c #9EF4FF",
"^  c #B3E6EF",
"/  c #B4E5EF",
"(  c #ACEBF7",
")  c #ACECF7",
"_  c #A9EEFB",
"`  c #B3E7F0",
"'  c #B1EAF1",
"]  c #B1ECF1",
"[  c #ACF2F7",
"{  c #A7F2FB",
"}  c #A3F3FD",
"|  c #A7F3FE",
" . c #A1F4FF",
".. c #A4F4FF",
"X. c #ABF1F9",
"o. c #ACF2F8",
"O. c #A9F4FA",
"+. c #A8F3FC",
"@. c #AAF4FE",
"#. c #B3F1F2",
"$. c #B4F1F0",
"%. c #D3F2F4",
"&. c #D9F1F3",
"*. c #DEF1F1",
"=. c #E4F0F0",
"-. c #E0FCFF",
/* pixels */
" . . . . . . . . . . . . . . .....| .. . . . . . . . . . . . . . . . . . . . ... . .",
" ..... ....... ..... ..... ... .@.%.@...@.@... . ..... ..... . ..... ..... ....... .",
" ..... ............. ..... . .......@.&.*.&.@. ....... ..... . ..... ..... .........",
" . . . . . . . . . . . . . . ... .~ @.*.=.*.@. . . . . . . . . . . . . . . . ..... .",
" . ... . ... . ... . . ... .....@. .@.&.*.&.@. . ... . . ......... . ..... . ... . .",
" ........................... .@.%.@...@.@............. ................... ....... .",
" ..... . ... . ... . . ... .....@. . . . ..... . ... . . ......... . ..... . ..... .",
" ... . . ..... . . . . ... . ... . .@...@.%.@. ..... . . .|  . ... . . . . . ... . .",
" ..... ....... ..... ..... . ... ...*.&.@.@... ....... ... ... ..... ..... ....... .",
" . ... ..... . ..... . ... ..... ...&.&.|  ... . ..... . .X. . ... . ..... . .......",
" . . . . . . . . ... . . . . . . . ...@.@. . . . . . .~ ^ E ' ~  . . . . . . ..... .",
" . ... . ... . ... . . ... . ... . . .@.-.@. ... . .O.] 4   y '  ... ..... . ..... .",
".................... ...................@... . .~ #.Q H m v + y o. .| ..............",
" ..... . ... . ..... . ... . ... . ..... ...[ [ $.Q z h V Z O w o. .} .... . ..... .",
" . . . . ... . ... . . . . . ..... ..... .X.! U Q k h 5 n N . w X. .}  . . . ... . .",
"...... ....... ..... ............. ..... ...[ [ $.Q A x V N O y X. .| .... .........",
" ..... ..... . ..... . ..... ... . ..... . . . . .X.#.K M g 2 '  ... ..... . ..... .",
" . . . . ... . . . . . ... . . . . . . . . ... .} ~ #.G l $ 0 X. .}  . . . . . . . .",
" ..... ....... ............. ..... ..... .......~ #.U M v * y X. ... ..... ....... .",
" ..... ....... ............. ..... ..... ..... .#.U j N = q ]  ..... ..... .........",
" . . . . . . . . . . . . . . . . . . . . . . .#.I a 8 d @ u { ~ |  . . . . . . ... .",
" . ... . ... . ..... . ... . ... . ....... .o.U s 8 f # w '  ..... . ..... ....... .",
" ..... ............. ............. ....... .[ F m 9 v o e +. .| .... ............. .",
" ..... ..... . ... . . ... . ... . . ..... .X.Q s 8 b # q ] ~ | .. . ..... . .......",
" ... . . ... . . . . . ... . ..... . . . . . .#.U j N c : t ] ~ .. . . . . . ... . .",
"...... ............. ..... . ........... ..... .#.W 7 N v % y '  ... ..... . .......",
" . ... ..... . ... . ....... ..... . ... . .....~ #.D 6 B b   r X. .} .... . .......",
" . . . . ... . . . . . ... . ... . . . . . . . .} ~ #.S z N o 0 X. .}  . . . ..... .",
" . ... . ... . ... . ..... . ... . ..... . ... . .) } #.J c O e X. .} .... . ..... .",
".............................................. ./ Y _ ..L m & w o. .| ..............",
" . ... . ... . ... . . ..... ... . . ... .|  ._ 3 C #.#.J g X y X. .} .... . ..... .",
" . ... ..... . ... . . ..... ... . . ... .|  .( > g P J Z - y ]  . . ..... . ..... .",
" ................... ............. .......|  .o.u # p m i , '  ..... ..... ....... .",
" . ... . ..... ... . . ... . ... . ..... . ... .] u 1 ; , T X. ... . ..... . ..... .",
" . ... . . . . . . . . . . . ... . . . . . . . . .{ / R ` { |  . . . . . . . ..... .",
" ..... ....... ..... ............. ..... ......... . .X. . . . ..... ..... ....... .",
" ............. ..... ..... . ..... ..... ..... . ..... ..... . ........... .........",
" . . . . . . . . . . . . . . . . . . . . . . . . . . .}  . . . . . . . . . . . ... .",
" . ... . ... . ... . ....... ... . ..... ..... . ... . . ... . ... . ..... . ... . .",
"....................................................................................",
"...... ........... . ........... ....... ..... ..... ....... ............. .........",
" . . . . . . . . . . . . . . ... . . . . ... . . . . . ... . . ... . ... . . . . ..."
};
