/* XPM */
static char *turtule_north[] = {
/* columns rows colors chars-per-pixel */
"42 42 95 2 ",
"   c #00BD57",
".  c #00BD5B",
"X  c #00BE5F",
"o  c #00BE60",
"O  c #00BF65",
"+  c #04BF67",
"@  c #09BF65",
"#  c #0CBF65",
"$  c #628755",
"%  c #00C066",
"&  c #0AC164",
"*  c #0EC064",
"=  c #08C068",
"-  c #0FC069",
";  c #13C162",
":  c #14C162",
">  c #11C067",
",  c #15C067",
"<  c #18C067",
"1  c #11C06A",
"2  c #15C068",
"3  c #18C169",
"4  c #23C162",
"5  c #28C167",
"6  c #2FC26A",
"7  c #30C266",
"8  c #32C268",
"9  c #29C274",
"0  c #2EC376",
"q  c #2EC478",
"w  c #37C575",
"e  c #35C57C",
"r  c #70D74C",
"t  c #77D74E",
"y  c #7DD24F",
"u  c #7DD251",
"i  c #7BD753",
"p  c #7CD254",
"a  c #7FD850",
"s  c #7DD85C",
"d  c #45C26F",
"f  c #4AC36D",
"g  c #48C46E",
"h  c #45C270",
"j  c #4DC470",
"k  c #7DD464",
"l  c #7EDB7C",
"z  c #82D75F",
"x  c #81D95B",
"c  c #84DA5A",
"v  c #86DA5F",
"b  c #83D861",
"n  c #85D862",
"m  c #81DC6B",
"M  c #81DC6D",
"N  c #90D86E",
"B  c #94DA6F",
"V  c #8DDC77",
"C  c #83DC7B",
"Z  c #84DC7E",
"A  c #95DA70",
"S  c #97DC7D",
"D  c #37C682",
"F  c #38C681",
"G  c #3CC684",
"H  c #3EC788",
"J  c #84DC80",
"K  c #88DF81",
"L  c #D9DAB2",
"P  c #D9DBB4",
"I  c #DEDAB6",
"U  c #DFDCB6",
"Y  c #DCDDBC",
"T  c #E0DCB7",
"R  c #E4DBB8",
"E  c #E3DCB9",
"W  c #E5DCB9",
"Q  c #E4DDBC",
"!  c #97ECEB",
"~  c #9AEEF2",
"^  c #9DEFF2",
"/  c #9BEFF4",
"(  c #9FF1F2",
")  c #9EF1F4",
"_  c #9FF1F9",
"`  c #A1F1F3",
"'  c #A0F3F7",
"]  c #A8F1F6",
"[  c #A1F2F8",
"{  c #A3F3FE",
"}  c #A1F4FF",
"|  c #A4F4FF",
" . c #A9F2FB",
".. c #A9F3FC",
"X. c #E1DEC0",
/* pixels */
"} } } } } } } } } } } } } } } | } } } } } } } } } | } } } } } } } } } } } } } | } } ",
"} | | } | | | } | | } | | } | | | | | | } | | } } | | | | | } } | | } | | } | | | } ",
"} | | } | | | | | | } | | } } | | } | | | | | } } | | | | | } } | | } | | } | | | | ",
"} } } } } } } } } } } } } } } | } } } } } } } } } } } } } } } } } } } } } } } | | } ",
"} } | } } | } } | } } | | } | | } } | | } | | } } | } } } | | | | } } | | } } | } } ",
"} | | | | | | | | | | | | | | | | } | | | | | | | | | } | | | | | | | | | } | | | } ",
"} | | } } | } } | } } } | } | | } } } | } } | } } | } } } | | } | } } | | } } | | } ",
"} | } } } | | } } } } } | } } | } } } | } } | } } | } } } | } } | } } } } } } | } } ",
"} | | } | | | } | | } | | } } | | } | | } | | | | | | } | | | | | | } | | } | | | } ",
"} } | } | | } } | | } } | } | | | } | | } } | } } | } } } | | } | } } | | } } | | | ",
"} } } } } } } } } | } } } } } } } } } } } } | } } } } } } } } } } } } | | } } | | } ",
"} } | } } | } } | } } } | } } | } } | | } } | } } | } } } | } } | } } | | } } | | } ",
"| | | | | | | | | | } | | | | | | } | | | | | | | | | | | | | | | | | | | | | | | | ",
"} | | } } | } } | | } } | } } | } } | | } } | } } | } } } | } | | } } | | } } | | } ",
"} } } } } | } } | } } } } } } | | } } } } } } } } | } } } } } } } | } } } } } | | } ",
"| | | } | | | } | | } | | | | | | } | | } | | | } | | } | | | | | | } | | } | | | | ",
"} | | } | | } | | | } } | | } | } } | | } } | | | | | } | | } } | } } | | } } | | } ",
"} } } } } | } } } } } } | } } } } } } } } } } } } } } } } } } } } } } } } } } } | } ",
"} | | } | | | | | | | | | | } | | } | | } | | | } | | } | | } } | | | | | } | | | } ",
"} | | } | | | } | | | | | | } | | } | | } | | } | | | } | | } | | | } | | } | | | | ",
"} } } } } } } } } } } } } } } } } } } } } } | } } } } } } } } } } } } } } } } } | } ",
"} } | } } | } } | | } } | } } | } } | | } } | } } | } } | | } } | } } | | } } | | } ",
"} | | } | | | | | | } | | } | | | } | | | | | | | | | | | | | | | | } | | } | | | } ",
"} } | } } | } } } | | | | | } | } } | | } } | } } | } } } | } } | } } | | } } | | } ",
"} | } } } | } } | _ _ _ _ _ } } } } [ [ } } | } } } } } | | } } | } } } } } | | } } ",
"| | | } | | } | ~ G 9 e 0 G ~ | } ( Z Z ( | | } } | | } | | } } | | } | | } | | | } ",
"} } | } } | | ~ G X X o o . F / [ C a u Z [ | } } | } } } | | } | } } | | } } | | | ",
"} } | } } | ~ D X > O # > @   H ! m p $ k ' | } } | } } } } } } } } } } } } } | | } ",
"} } | } | _ G . 2 > O * > @ * O w s x y J [ | } } | } } } | | | | } } | | } } | | } ",
"| | | { | [ 9 o 3 2 * 2 3 > , 1 4 s c K ` | | | | | | | | | | | | | | | | | | | | | ",
"} } } } | ^ q X 2 > + * > @ # = 6 i M ) } } } } } } } } } } } } } } } } } } } } } } ",
" . . ...( l 4 O , , # , < @ * + & t V ] .. . . . . . . . . . . . . . . . . . . . . .",
"X.X.X.Y S n 5 O - % o % % O O 2 g N U X.X.X.X.X.X.X.X.X.X.X.X.X.X.X.X.X.X.X.X.X.X.X.",
"W W W R T P f : 8 d d d h 7 ; j L E W W W W W W W W W R W W W W W W W W W W W W W W ",
"E W W E Q T b r n L I I L z r n T Q E W E W W E E W W E W W W W W W E W W E E Q W W ",
"W W Q W Q U B v A E Q Q E B n A U W W Q W W Q W W Q W W W Q W Q Q W W W Q W W Q W W ",
"W W Q Q Q Q T U E E E W W T U E Q W W Q W W Q Q W Q W Q W Q W W Q W W W Q W Q Q Q W ",
"W W W W W W W W Q W W W W W W Q W W W W W W W W W W W W W W W W W W W W W W W Q W W ",
"W W W W Q Q W E Q W W W W E E W Q W W W W W Q Q W Q Q W W W W W W Q W Q W W W Q W W ",
"W Q Q W Q Q Q Q Q Q W Q Q W Q Q Q W Q Q W Q Q Q Q Q Q Q Q Q Q Q Q Q Q Q Q W Q Q Q W ",
"W Q W W Q Q Q W Q Q W Q W W W Q W W Q W W Q W Q Q Q Q Q Q W W Q Q W W Q W Q Q Q W Q ",
"W W W W W W W W W W W W W W W W W W W W W W W W W Q W W Q W W W W W W Q W W Q Q W Q "
};
