/* XPM */
static char *result[] = {
/* columns rows colors chars-per-pixel */
"50 50 80 1 ",
"  c #6B3B2F",
". c #6D3F33",
"X c #6E4034",
"o c #714337",
"O c #744639",
"+ c #77483B",
"@ c #7D4C3D",
"# c #784C40",
"$ c #7F5246",
"% c #7F5448",
"& c #804F3F",
"* c #814F40",
"= c #825141",
"- c #885647",
"; c #81564A",
": c #83594D",
"> c #8D5A48",
", c #965E4A",
"< c #985E4A",
"1 c #97604B",
"2 c #9E634E",
"3 c #8D6154",
"4 c #9F6450",
"5 c #92675A",
"6 c #936A5E",
"7 c #A16652",
"8 c #A36955",
"9 c #A66E5A",
"0 c #A7705C",
"q c #A9725E",
"w c #936D62",
"e c #997367",
"r c #9B766A",
"t c #9C786C",
"y c #9F7A70",
"u c #A47563",
"i c #AB7562",
"p c #AD7966",
"a c #AE7B68",
"s c #B17D6A",
"d c #A17C72",
"f c #B2816E",
"g c #B68573",
"h c #B78875",
"j c #B88876",
"k c #BB8C7B",
"l c #BD907E",
"z c #BE9382",
"x c #BB998E",
"c c #C19585",
"v c #C29788",
"b c #C59C8C",
"n c #C79F90",
"m c #C7A090",
"M c #CAA394",
"N c #C4A59A",
"B c #CCA699",
"V c #CEA99B",
"C c #D0AC9F",
"Z c #D1AFA1",
"A c #D3B1A5",
"S c #D5B4A8",
"D c #D8B7AC",
"F c #D6B8AB",
"G c #D8B9AE",
"H c #D6BFB5",
"J c #DBBEB3",
"K c #D8BFB8",
"L c #D9C1B7",
"P c #DDC3BB",
"I c #E0C7BD",
"U c #E5CEC6",
"Y c #E6CFC8",
"T c #E7D1C9",
"R c #E9D3CC",
"E c #E9D5D0",
"W c #ECD8D3",
"Q c #F0DEDA",
"! c #F3E0DD",
"~ c None",
/* pixels */
"~~~~~~~~~~~~~~~~~~~~~~~~~~~~~~~~~~~~~~~~~~~~~~~~~~",
"~oooo.dUQQ!QW!QQ!WQ!!W!WQ!QQ!WQ!!WQQQQQQQQQQ!WdXo~",
"~ooo..dU!Q!!!QQQQQQQ!QQ!QQQQQQQQ!!!!QQQQQQQQ!!d X~",
"~oo%erxITTUTTTTTTTTTTTUUTTTTTTTTTTUTTTTTTTTTUUxrt~",
"~o.rUWUGSSFFFFSSFFFFFFFFFFFFFFFGSFFGFFSDFFFFFGUEE~",
"~X.tEQTGSSSSSSSSSSSSSSSSSSSSSAASSSSSSSSSSSASSSU!Q~",
"~o.rWQUGSSSSSSSSASSSSSASSSASSSFSSSSSSSSSSSSSSFUQQ~",
"~oXtEQTGSSSSSSASFSSSSSSSSSSSSSSSSSSSSSSSSSSSSSTQQ~",
"~oXtE!UGSSSSSSSSSSSSSSSSSSSSSSSSADASSSASSSSSSSTQQ~",
"~o.tWQUGASSSSSSSSSSSSSSSSSSASSSSSADASSDASSSSSSUQQ~",
"~o.tW!UGASSSSSSSSSSSSSSSSSSSSASSADSSSSSSSSSSSSYQQ~",
"~o.tRQYJSSSSSSSSASASSSSSSSSSSSSSDASSSSSSSSSSSSTQQ~",
"~o.eUTJMbBASCmbMASAMbMZSSbbmASAmbmCSAMbmCSABbbLRT~",
"~oo5AJma9hCSma0fBSBp0aBDAi9pMSZf0smSVg0pbSSj0qMGJ~",
"~oo5VSv92fBSb92qBSB029BDA729mSVi29bDVs28cDAf22cFA~",
"~oo3bBzaqhbMcfqfbMbfifbmMpiavMbgiscMbgqalBbjiizMB~",
"~oo=9ugnBcpqgnBbfqabVbaqqMBmfqabBngiavMMjqalBBh0q~",
"~oo*<4sCDv92aVFM02qVSVq27SSCi29MSVp<9bDAg<8cFAf22~",
"~oo#,,pnVz92pbVbq29mVb927MCmq29vVnp29cMms28kVBp,1~",
"~oooO+-8097489987279097279998279088279q9922909-++~",
"~ooooX&,222444242722222222227222422474<7222222@oo~",
"~ooooo@,<<<<<<<<,1,,,,,<1<111111<<<<,<<<<<<<<<&oo~",
"~oooooOO+++O+++++++++++OOOO+++OO++++O++++++++Oooo~",
"~..oXXXXXXXX....XXXXXXoooooooooX.o........XXXXXXX~",
"~####################+ooooooooo+#################~",
"~EEEEEEEEEEEEEEWEEEEEK:ooooooX:FRWEEEEEEEEEEERWRE~",
"~!!!!!Q!!!!!QQ!!!!Q!!U:XooooX.:L!!!QQ!!!!!!!Q!!!!~",
"~WWWWWWWWWWWWWWWWWWWWPw:-oo+%;6LWWWWWWWWWWWWWWWWW~",
"~JJJJJJJJJJJJJJJKJJJLJHLF#X%NHHJKJJJJJJJJJJJJLJJK~",
"~SSSSSSSSSSSSSSSSSSSAJW!E+.:LQWJSSASSSSSSSSSSSSSS~",
"~SSSSSSSSSSSSSSSSSSSAJW!E#.:HQWJSSSSSSSSSSSSSSSSS~",
"~SSSSSSSSSSSSSSASSSSAHW!E#.:HQWJSSSSSSSSSSSSSASSS~",
"~SSSSSSSSSSSSSSSSSSSSJW!R@X:HQWJSSSSSSSSSSSSSSSSS~",
"~SSSSSSSSSSSASSSSSSSSGW!R&X:HQWJSSSSSSSSSSSSASSSS~",
"~SSSSSSSSSSSSSSSSSDASDW!E@X;HQWJSSSSSSASSSSSSSSSS~",
"~SSSSSSSSSSSSSDSSSASDLW!E+X:LQWLDSSASSSSSSSSSSSSS~",
"~VBCASZVBCSSZVBCAAAVVATQT+.:FWTSBVASACVCZSACCVCSS~",
"~sszADmgslCSMjskCSAgfjSIH#X%NPGlsjBSClffnSAcasmDS~",
"~22sASv92sCSb9<iBSV929VSZ+X%xFVi29bSBf28cDCg22vDS~",
"~98sBAvi8fBZvi8smAMi7iMAB+X%zZBa9ivAMf80cZCg89cAZ~",
"~vzlhfkzclggjzczjgjzzzhgsO.@ugjccljfhlzzkfgkvvjgg~",
"~FDb72fVDb92sCDMq20VGVq24Oo+,<9MSVf29bLZg28cDSf22~",
"~ZAc82fBAc92sMZnq29BAM62<oo+><8bAMp29vZVf28lACs27~",
"~gha720fga829fgs828fga>&=ooo&&-pgf927fhf028igg022~",
"~22222722227222242422,OoooooooO>22224422244222277~",
"~22222222222222222222<+ooooooo+,22224422242222222~",
"~=@=&&&&&&&&&&&&&&&&&@OoooooooO@&&&&@@&&@&&&&&@&&~",
"~XooooooooooooooooooooooooOoooooooooOoooooooXoooo~",
"~oooooooooooooooOooooooooooOooooooooooooo+ooooooo~",
"~~~~~~~~~~~~~~~~~~~~~~~~~~~~~~~~~~~~~~~~~~~~~~~~~~"
};
